# xmcd
#
# Track frame offsets:
#	150
#	909
#	12872
#	26270
#	40021
#	52653
#	66612
#	83738
#	94835
#	104915
#	117248
#	131233
#	143582
#	157836
#	168679
#	178838
#	191456
#	206015
#
# Disc length: 2908 seconds
#
# Revision: 0
# Processed by: cddbd v1.5.1PL0 Copyright (c) Steve Scherf et al.
# Submitted via: dBpowerAMP V4.0
#
DISCID=ea0b5a12
DTITLE=Various Artist - Jimmy Martin Tribute
DYEAR=1900
DGENRE=Bluegrass
TTITLE0=Sonny Osborne Intro
TTITLE1=Sophronie
TTITLE2=You Don't Know My Mind
TTITLE3=Losing You
TTITLE4=There Ain't Nobody Gonna Miss Me When I'm Gone
TTITLE5=She's Left Me Again
TTITLE6=Doin' My Time
TTITLE7=I Cried Again
TTITLE8=Home Run Man
TTITLE9=Ocean of Diamonds
TTITLE10=God Guide Our Leader's Hand
TTITLE11=What You Give In Exchange
TTITLE12=I Like To Hear 'Em Preach
TTITLE13=Hold Whatcha Got
TTITLE14=My Walkin' Shoes
TTITLE15=Steppin' Stones
TTITLE16=I'm Thinking Tonight of My Blue Eyes
TTITLE17=Tennessee
EXTD=
EXTT0=
EXTT1=
EXTT2=
EXTT3=
EXTT4=
EXTT5=
EXTT6=
EXTT7=
EXTT8=
EXTT9=
EXTT10=
EXTT11=
EXTT12=
EXTT13=
EXTT14=
EXTT15=
EXTT16=
EXTT17=
PLAYORDER=
